/* XPM */
static char * floor_black_xpm[] = {
"64 64 104 2",
"  	c #000000",
". 	c #000009",
"+ 	c #00000B",
"@ 	c #000008",
"# 	c #000001",
"$ 	c #000006",
"% 	c #000014",
"& 	c #00001D",
"* 	c #000028",
"= 	c #00002D",
"- 	c #00002C",
"; 	c #000024",
"> 	c #000016",
", 	c #00000A",
"' 	c #000012",
") 	c #000022",
"! 	c #000029",
"~ 	c #00001B",
"{ 	c #000002",
"] 	c #000013",
"^ 	c #010129",
"/ 	c #02022C",
"( 	c #040428",
"_ 	c #06062D",
": 	c #020229",
"< 	c #000020",
"[ 	c #00000D",
"} 	c #000025",
"| 	c #020225",
"1 	c #08082A",
"2 	c #0A0A29",
"3 	c #0C0C2D",
"4 	c #0B0B2A",
"5 	c #040424",
"6 	c #010127",
"7 	c #00002B",
"8 	c #000019",
"9 	c #000003",
"0 	c #040422",
"a 	c #090928",
"b 	c #030324",
"c 	c #00002A",
"d 	c #060625",
"e 	c #090927",
"f 	c #020224",
"g 	c #000010",
"h 	c #030325",
"i 	c #0B0B2B",
"j 	c #060622",
"k 	c #000027",
"l 	c #0A0A28",
"m 	c #00001F",
"n 	c #070726",
"o 	c #000018",
"p 	c #000004",
"q 	c #030321",
"r 	c #000007",
"s 	c #00001A",
"t 	c #030326",
"u 	c #000005",
"v 	c #070724",
"w 	c #000026",
"x 	c #080824",
"y 	c #000011",
"z 	c #050524",
"A 	c #080827",
"B 	c #010128",
"C 	c #040429",
"D 	c #05052C",
"E 	c #00000E",
"F 	c #020228",
"G 	c #05052B",
"H 	c #02022A",
"I 	c #050529",
"J 	c #050526",
"K 	c #000015",
"L 	c #03032D",
"M 	c #040426",
"N 	c #080829",
"O 	c #040427",
"P 	c #070728",
"Q 	c #010124",
"R 	c #080826",
"S 	c #010126",
"T 	c #010123",
"U 	c #050523",
"V 	c #090925",
"W 	c #010125",
"X 	c #00001C",
"Y 	c #060624",
"Z 	c #090929",
"` 	c #020227",
" .	c #0A0A2A",
"..	c #0A0A2B",
"+.	c #070723",
"@.	c #020223",
"#.	c #00001E",
"$.	c #050528",
"%.	c #09092D",
"&.	c #08082B",
"*.	c #000023",
"=.	c #00000F",
"-.	c #00000C",
";.	c #000021",
"                                                                                                                                ",
"                                                                                                                                ",
"                                                                                                                                ",
"                                                                                                                                ",
"                                                                                                                                ",
"                                                                                                                                ",
"                                                          . + + + + + @ #                                                       ",
"                                                $ % & * = = = = = = = = - ; > ,                                                 ",
"                                            ' ) - = = = = = = = = = = = = = = = ! ~ .                                           ",
"                                      { ] ; = = = = = - ^ / ( _ _ _ ( : * = = = = = - < @                                       ",
"                                    [ } = = = = ! | 1 2 3 3 3 3 3 3 3 3 4 1 5 6 - = = = 7 8 #                                   ",
"                                9 8 - = = = } 0 4 3 3 3 3 3 3 3 3 3 3 3 3 3 3 3 a b c = = = } .                                 ",
"                              , ! = = = * d 3 3 3 3 3 3 3 3 3 3 3 3 3 3 3 3 3 3 3 3 e f - = = c g                               ",
"                            , c = = 7 h i 3 3 3 3 3 3 3 3 3 3 3 3 3 3 3 3 3 3 3 3 3 3 3 j k = = = ]                             ",
"                          . c = = * j 3 3 3 3 3 3 3 3 3 3 3 3 3 3 3 3 3 3 3 3 3 3 3 3 3 3 l 6 = = - ]                           ",
"                        @ 7 = = * e 3 3 3 3 3 3 3 3 3 3 3 3 3 3 3 3 3 3 3 3 3 3 3 3 3 3 3 3 4 f = = - ]                         ",
"                      9 k = = * a 3 3 3 3 3 3 3 3 3 3 3 3 3 3 3 3 3 3 3 3 3 3 3 3 3 3 3 3 3 3 4 | = = - +                       ",
"                      m = = ! e 3 3 3 3 3 3 3 3 3 3 3 3 3 3 3 3 3 3 3 3 3 3 3 3 3 3 3 3 3 3 3 3 4 | = = ;                       ",
"                    ' = = 7 n 3 3 3 3 3 3 3 3 3 3 3 3 3 3 3 3 3 3 3 3 3 3 3 3 3 3 3 3 3 3 3 3 3 3 e k = = o                     ",
"                  p ! = = q 3 3 3 3 3 3 3 3 3 3 3 3 3 3 3 3 3 3 3 3 3 3 3 3 3 3 3 3 3 3 3 3 3 3 3 3 d - = 7 r                   ",
"                  s = = 6 4 3 3 3 3 3 3 3 3 3 3 3 3 3 3 3 3 3 3 3 3 3 3 3 3 3 3 3 3 3 3 3 3 3 3 3 3 3 t = = m                   ",
"                u 7 = - v 3 3 3 3 3 3 3 3 3 3 3 3 3 3 3 3 3 3 3 3 3 3 3 3 3 3 3 3 3 3 3 3 3 3 3 3 3 3 a ! = - u                 ",
"                > = = f 3 3 3 3 3 3 3 3 3 3 3 3 3 3 3 3 3 3 3 3 3 3 3 3 3 3 3 3 3 3 3 3 3 3 3 3 3 3 3 3 h = = <                 ",
"                w = - n 3 3 3 3 3 3 3 3 3 3 3 3 3 3 3 3 3 3 3 3 3 3 3 3 3 3 3 3 3 3 3 3 3 3 3 3 3 3 3 3 x ! = = #               ",
"              . = = k 3 3 3 3 3 3 3 3 3 3 3 3 3 3 3 3 3 3 3 3 3 3 3 3 3 3 3 3 3 3 3 3 3 3 3 3 3 3 3 3 3 3 : = = y               ",
"              o = = 5 3 3 3 3 3 3 3 3 3 3 3 3 3 3 3 3 3 3 3 3 3 3 3 3 3 3 3 3 3 3 3 3 3 3 3 3 3 3 3 3 3 3 z = = m               ",
"              < = = A 3 3 3 3 3 3 3 3 3 3 3 3 3 3 3 3 3 3 3 3 3 3 3 3 3 3 3 3 3 3 3 3 3 3 3 3 3 3 3 3 3 3 4 - = *               ",
"              k = - 4 3 3 3 3 3 3 3 3 3 3 3 3 3 3 3 3 3 3 3 3 3 3 3 3 3 3 3 3 3 3 3 3 3 3 3 3 3 3 3 3 3 3 3 B = = $             ",
"            $ = = k 3 3 3 3 3 3 3 3 3 3 3 3 3 3 3 3 3 3 3 3 3 3 3 3 3 3 3 3 3 3 3 3 3 3 3 3 3 3 3 3 3 3 3 3 C = = +             ",
"            , = = h 3 3 3 3 3 3 3 3 3 3 3 3 3 3 3 3 3 3 3 3 3 3 3 3 3 3 3 3 3 3 3 3 3 3 3 3 3 3 3 3 3 3 3 3 _ = = +             ",
"            , = = h 3 3 3 3 3 3 3 3 3 3 3 3 3 3 3 3 3 3 3 3 3 3 3 3 3 3 3 3 3 3 3 3 3 3 3 3 3 3 3 3 3 3 3 3 D = = E             ",
"            . = = F 3 3 3 3 3 3 3 3 3 3 3 3 3 3 3 3 3 3 3 3 3 3 3 3 3 3 3 3 3 3 3 3 3 3 3 3 3 3 3 3 3 3 3 3 G = = '             ",
"            r = = H 3 3 3 3 3 3 3 3 3 3 3 3 3 3 3 3 3 3 3 3 3 3 3 3 3 3 3 3 3 3 3 3 3 3 3 3 3 3 3 3 3 3 3 3 I = = ]             ",
"            9 = = / 3 3 3 3 3 3 3 3 3 3 3 3 3 3 3 3 3 3 3 3 3 3 3 3 3 3 3 3 3 3 3 3 3 3 3 3 3 3 3 3 3 3 3 3 J = = K             ",
"              = = L 3 3 3 3 3 3 3 3 3 3 3 3 3 3 3 3 3 3 3 3 3 3 3 3 3 3 3 3 3 3 3 3 3 3 3 3 3 3 3 3 3 3 3 3 z = = >             ",
"              = = B 3 3 3 3 3 3 3 3 3 3 3 3 3 3 3 3 3 3 3 3 3 3 3 3 3 3 3 3 3 3 3 3 3 3 3 3 3 3 3 3 3 3 3 3 M = = ]             ",
"              ! = 7 4 3 3 3 3 3 3 3 3 3 3 3 3 3 3 3 3 3 3 3 3 3 3 3 3 3 3 3 3 3 3 3 3 3 3 3 3 3 3 3 3 3 3 3 / = = ,             ",
"              < = = N 3 3 3 3 3 3 3 3 3 3 3 3 3 3 3 3 3 3 3 3 3 3 3 3 3 3 3 3 3 3 3 3 3 3 3 3 3 3 3 3 3 3 3 k = -               ",
"              K = = O 3 3 3 3 3 3 3 3 3 3 3 3 3 3 3 3 3 3 3 3 3 3 3 3 3 3 3 3 3 3 3 3 3 3 3 3 3 3 3 3 3 3 n - = w               ",
"              @ - = k l 3 3 3 3 3 3 3 3 3 3 3 3 3 3 3 3 3 3 3 3 3 3 3 3 3 3 3 3 3 3 3 3 3 3 3 3 3 3 3 3 3 O = = 8               ",
"                ) = = P 3 3 3 3 3 3 3 3 3 3 3 3 3 3 3 3 3 3 3 3 3 3 3 3 3 3 3 3 3 3 3 3 3 3 3 3 3 3 3 3 4 * = = r               ",
"                g = = Q 3 3 3 3 3 3 3 3 3 3 3 3 3 3 3 3 3 3 3 3 3 3 3 3 3 3 3 3 3 3 3 3 3 3 3 3 3 3 3 3 d = = }                 ",
"                p c = - R 3 3 3 3 3 3 3 3 3 3 3 3 3 3 3 3 3 3 3 3 3 3 3 3 3 3 3 3 3 3 3 3 3 3 3 3 3 3 4 S = = '                 ",
"                  8 = = T 3 3 3 3 3 3 3 3 3 3 3 3 3 3 3 3 3 3 3 3 3 3 3 3 3 3 3 3 3 3 3 3 3 3 3 3 3 3 U = = ! {                 ",
"                  $ 7 = - j 3 3 3 3 3 3 3 3 3 3 3 3 3 3 3 3 3 3 3 3 3 3 3 3 3 3 3 3 3 3 3 3 3 3 3 3 V * = = '                   ",
"                    8 = = k a 3 3 3 3 3 3 3 3 3 3 3 3 3 3 3 3 3 3 3 3 3 3 3 3 3 3 3 3 3 3 3 3 3 3 4 Q = = } #                   ",
"                    { w = = W 4 3 3 3 3 3 3 3 3 3 3 3 3 3 3 3 3 3 3 3 3 3 3 3 3 3 3 3 3 3 3 3 3 3 5 = = 7 @                     ",
"                      , 7 = = | 4 3 3 3 3 3 3 3 3 3 3 3 3 3 3 3 3 3 3 3 3 3 3 3 3 3 3 3 3 3 3 3 5 - = - ]                       ",
"                        y = = = | 4 3 3 3 3 3 3 3 3 3 3 3 3 3 3 3 3 3 3 3 3 3 3 3 3 3 3 3 3 3 5 - = = ~                         ",
"                          ' - = = | l 3 3 3 3 3 3 3 3 3 3 3 3 3 3 3 3 3 3 3 3 3 3 3 3 3 3 4 5 - = = X                           ",
"                            ' = = = ! Y 3 3 3 3 3 3 3 3 3 3 3 3 3 3 3 3 3 3 3 3 3 3 3 3 Z } = = = &                             ",
"                              ' - = = - `  .3 3 3 3 3 3 3 3 3 3 3 3 3 3 3 3 3 3 3 3 ..h c = = = ~                               ",
"                                , } = = = ! J 4 3 3 3 3 3 3 3 3 3 3 3 3 3 3 3 3 a 5 k = = = * g                                 ",
"                                  # K 7 = = = ! h +.3 3 3 3 3 3 3 3 3 3 3 4 d @.7 = = = - #.p                                   ",
"                                      u ) = = = = = 7 Q $.d %.%.%.&.5 : } 7 = = = = - *.+                                       ",
"                                        # =.< - = = = = = = = = = = = = = = = = - & -.                                          ",
"                                              u > ;.7 = = = = = = = = = - w m y $                                               ",
"                                                    9 + ' > > > > > K , {                                                       ",
"                                                                                                                                ",
"                                                                                                                                ",
"                                                                                                                                ",
"                                                                                                                                ",
"                                                                                                                                ",
"                                                                                                                                "};
