/* XPM */
static char *exit[] = {
"32 32 3 1",
"  c None",
". c #000000",
"X c #00FF00",
"                                ",
"                                ",
"     .......................    ",
"     .XXXXXXXXXXXXXXXXXXXXXE    ",
"     .XXXXXXXXXXXXXXXXXXXXXE    ",
"     .XXXXXXXXXXXXXXXXXXXXXE    ",
"     .XXXXXXXXXXXXXXXXXXXXXE    ",
"     .XXXXXXXXXXXXXXXXXXXXXE    ",
"     .XXXXXXXXXXXXXXXXXXXXXE    ",
"     .XXXXXXXXXXXXXXXXXXXXXE    ",
"     .XXXXXXXXXXXXXXXXXXXXXE    ",
"     .XXXXXXXXXXXXXXXXXXXXXE    ",
"     .XXXXXXXXXXXXXXXXXXXXXE    ",
"     .XXXXXXXXXXXXXXXXXXXXXE    ",
"     .XXXXXXXXXXXXXXXXXXXXXE    ",
"     .XXXXXXXXXXXXXXXXXXXXXE    ",
"     .XXXXXXXXXXXXXXXXXXXXXE    ",
"     .XXXXXXXXXXXXXXXXXXXXXE    ",
"     .XXXXXXXXXXXXXXXXXXXXXE    ",
"     .XXXXXXXXXXXXXXXXXXXXXE    ",
"     .XXXXXXXXXXXXXXXXXXXXXE    ",
"     .XXXXXXXXXXXXXXXXXXXXXE    ",
"     .XXXXXXXXXXXXXXXXXXXXXE    ",
"     .XXXXXXXXXXXXXXXXXXXXXE    ",
"     .XXXXXXXXXXXXXXXXXXXXXE    ",
"     .XXXXXXXXXXXXXXXXXXXXXE    ",
"     .XXXXXXXXXXXXXXXXXXXXXE    ",
"     .XXXXXXXXXXXXXXXXXXXXXE    ",
"     .EEEEEEEEEEEEEEEEEEEEE.    ",
"     .......................    ",
"                                ",
"                                "
};
