/* XPM */
static char * Hat_man1_xpm[] = {
"100 100 37 1",
" 	c None",
".	c #000000",
"+	c #A64040",
"@	c #B94848",
"#	c #FF6666",
"$	c #FFFFFF",
"%	c #CE5151",
"&	c #E55B5B",
"*	c #87480B",
"=	c #D6A889",
"-	c #E29062",
";	c #D7A98A",
">	c #97510D",
",	c #FCBB95",
"'	c #F3D3BE",
")	c #BB6611",
"!	c #FCA16D",
"~	c #5A4398",
"{	c #8161DA",
"]	c #FFFFFE",
"^	c #AD99E7",
"/	c #684EB0",
"(	c #0D0916",
"_	c #8A6C59",
":	c #AC876E",
"<	c #262626",
"[	c #444444",
"}	c #EEBB44",
"|	c #C09736",
"1	c #222222",
"2	c #9A7963",
"3	c #C0977B",
"4	c #573018",
"5	c #61361B",
"6	c #91674B",
"7	c #784422",
"8	c #555555",
"                                                                                                    ",
"                                                                                                    ",
"                                                                                                    ",
"                                                                                                    ",
"                                                                                                    ",
"                                                                                                    ",
"                                                                                                    ",
"                                                                                                    ",
"                                                                                                    ",
"                                                                                                    ",
"                                                                                                    ",
"                                                                                                    ",
"                        ....................................                                        ",
"                        ....................................                                        ",
"                        ....................................                                        ",
"                        ....................................                                        ",
"                    ....++++++++++++++++++++++++++++++++++++....                                    ",
"                    ....++++++++++++++++++++++++++++++++++++....                                    ",
"                    ....++++++++++++++++++++++++++++++++++++....                                    ",
"                    ....++++++++++++++++++++++++++++++++++++....                                    ",
"                ....++++++++@@@@@@@@@@@@####$$$$$$$$$$$$####....                                    ",
"                ....++++++++@@@@@@@@@@@@####$$$$$$$$$$$$####....                                    ",
"                ....++++++++@@@@@@@@@@@@####$$$$$$$$$$$$####....                                    ",
"                ....++++++++@@@@@@@@@@@@####$$$$$$$$$$$$####....                                    ",
"                ....++++%%%%%%%%%%%%%%%%####$$$$$$$$$$$$####....                                    ",
"                ....++++%%%%%%%%%%%%%%%%####$$$$$$$$$$$$####....                                    ",
"                ....++++%%%%%%%%%%%%%%%%####$$$$$$$$$$$$####....                                    ",
"                ....++++%%%%%%%%%%%%%%%%####$$$$$$$$$$$$####....                                    ",
"                ....&&&&&&&&&&&&########$$$$$$$$$$$$$$$$$$$$....                                    ",
"                ....&&&&&&&&&&&&########$$$$$$$$$$$$$$$$$$$$....                                    ",
"                ....&&&&&&&&&&&&########$$$$$$$$$$$$$$$$$$$$....                                    ",
"                ....&&&&&&&&&&&&########$$$$$$$$$$$$$$$$$$$$....                                    ",
"                ........................................................                            ",
"                ........................................................                            ",
"                ........................................................                            ",
"                ........................................................                            ",
"                ....********========----....========----........                                    ",
"                ....********========----....========----........                                    ",
"                ....********========----....========----........                                    ",
"                ....********========----....========----........                                    ",
"                ....;;;;>>>>,,,,,,,,,,,,,,,,,,,,,,,,,,,,''''....                                    ",
"                ....;;;;>>>>,,,,,,,,,,,,,,,,,,,,,,,,,,,,''''....                                    ",
"                ....;;;;>>>>,,,,,,,,,,,,,,,,,,,,,,,,,,,,''''....                                    ",
"                ....;;;;>>>>,,,,,,,,,,,,,,,,,,,,,,,,,,,,''''....                                    ",
"                ....,,,,)))),,,,,,,,,,,,,,,,,,,,,,,,,,,,''''....                                    ",
"                ....,,,,)))),,,,,,,,,,,,,,,,,,,,,,,,,,,,''''....                                    ",
"                ....,,,,)))),,,,,,,,,,,,,,,,,,,,,,,,,,,,''''....                                    ",
"                ....,,,,)))),,,,,,,,,,,,,,,,,,,,,,,,,,,,''''....                                    ",
"                    ....,,,,,,,,,,,,,,,,,,,,!!!!!!!!,,,,''''....                                    ",
"                    ....,,,,,,,,,,,,,,,,,,,,!!!!!!!!,,,,''''....                                    ",
"                    ....,,,,,,,,,,,,,,,,,,,,!!!!!!!!,,,,''''....                                    ",
"                    ....,,,,,,,,,,,,,,,,,,,,!!!!!!!!,,,,''''....                                    ",
"                    ........,,,,,,,,,,,,,,,,,,,,,,,,,,,,....                                        ",
"                    ........,,,,,,,,,,,,,,,,,,,,,,,,,,,,....                                        ",
"                    ........,,,,,,,,,,,,,,,,,,,,,,,,,,,,....                                        ",
"                    ........,,,,,,,,,,,,,,,,,,,,,,,,,,,,....                                        ",
"                ....~~~~{{{{{{{{{{{{{{{{$$$$]]]]~~~~]]]]....                                        ",
"                ....~~~~{{{{{{{{{{{{{{{{$$$$]]]]~~~~]]]]....                                        ",
"                ....~~~~{{{{{{{{{{{{{{{{$$$$]]]]~~~~]]]]....                                        ",
"                ....~~~~{{{{{{{{{{{{{{{{$$$$]]]]~~~~]]]]....                                        ",
"            ....~~~~{{{{{{{{{{{{{{{{{{{{{{{{{{{{$$$${{{{....                                        ",
"            ....~~~~{{{{{{{{{{{{{{{{{{{{{{{{{{{{$$$${{{{....                                        ",
"            ....~~~~{{{{{{{{{{{{{{{{{{{{{{{{{{{{$$$${{{{....                                        ",
"            ....~~~~{{{{{{{{{{{{{{{{{{{{{{{{{{{{$$$${{{{....                                        ",
"        ....~~~~{{{{{{{{^^^^~~~~{{{{{{{{{{{{////(((({{{{^^^^....                                    ",
"        ....~~~~{{{{{{{{^^^^~~~~{{{{{{{{{{{{////(((({{{{^^^^....                                    ",
"        ....~~~~{{{{{{{{^^^^~~~~{{{{{{{{{{{{////(((({{{{^^^^....                                    ",
"        ....~~~~{{{{{{{{^^^^~~~~{{{{{{{{{{{{////(((({{{{^^^^....                                    ",
"        ....{{{{{{{{^^^^~~~~{{{{{{{{{{{{{{{{{{{{$$$${{{{^^^^....                                    ",
"        ....{{{{{{{{^^^^~~~~{{{{{{{{{{{{{{{{{{{{$$$${{{{^^^^....                                    ",
"        ....{{{{{{{{^^^^~~~~{{{{{{{{{{{{{{{{{{{{$$$${{{{^^^^....                                    ",
"        ....{{{{{{{{^^^^~~~~{{{{{{{{{{{{{{{{{{{{$$$${{{{^^^^....                                    ",
"        ....{{{{{{{{^^^^~~~~{{{{{{{{{{{{{{{{////(((({{{{^^^^~~~~....                                ",
"        ....{{{{{{{{^^^^~~~~{{{{{{{{{{{{{{{{////(((({{{{^^^^~~~~....                                ",
"        ....{{{{{{{{^^^^~~~~{{{{{{{{{{{{{{{{////(((({{{{^^^^~~~~....                                ",
"        ....{{{{{{{{^^^^~~~~{{{{{{{{{{{{{{{{////(((({{{{^^^^~~~~....                                ",
"        ....~~~~~~~~~~~~~~~~{{{{{{{{{{{{{{{{{{{{$$$${{{{^^^^~~~~....                                ",
"        ....~~~~~~~~~~~~~~~~{{{{{{{{{{{{{{{{{{{{$$$${{{{^^^^~~~~....                                ",
"        ....~~~~~~~~~~~~~~~~{{{{{{{{{{{{{{{{{{{{$$$${{{{^^^^~~~~....                                ",
"        ....~~~~~~~~~~~~~~~~{{{{{{{{{{{{{{{{{{{{$$$${{{{^^^^~~~~....                                ",
"        ....____::::::::<<<<<<<<[[[[[[[[[[[[}}}}||||[[[[11112222....                                ",
"        ....____::::::::<<<<<<<<[[[[[[[[[[[[}}}}||||[[[[11112222....                                ",
"        ....____::::::::<<<<<<<<[[[[[[[[[[[[}}}}||||[[[[11112222....                                ",
"        ....____::::::::<<<<<<<<[[[[[[[[[[[[}}}}||||[[[[11112222....                                ",
"        ....3333,,,,,,,,444455555555555555555555555555556666,,,,....                                ",
"        ....3333,,,,,,,,444455555555555555555555555555556666,,,,....                                ",
"        ....3333,,,,,,,,444455555555555555555555555555556666,,,,....                                ",
"        ....3333,,,,,,,,444455555555555555555555555555556666,,,,....                                ",
"        ....3333,,,,,,,,444477777777777777774444777777776666....                                    ",
"        ....3333,,,,,,,,444477777777777777774444777777776666....                                    ",
"        ....3333,,,,,,,,444477777777777777774444777777776666....                                    ",
"        ....3333,,,,,,,,444477777777777777774444777777776666....                                    ",
"            ................................................                                        ",
"            ................................................                                        ",
"            ................................................                                        ",
"            ................................................                                        ",
"                        888888888888        ............                                            ",
"                        888888888888        ............                                            ",
"                        888888888888        ............                                            ",
"                        888888888888        ............                                            "};
